{"title":"Pitbull - Hey Baby (Drop It To The Floor) ft. T-Pain","uid":6087452,"size":28995326,"categoryP":"video","categoryS":"music_videos","magnet":"?xt=urn:btih:2a60d33e54e79e0b237aaa6a7563f74e365b546a&amp;dn=Pitbull+-+Hey+Baby+%28Drop+It+To+The+Floor%29+ft.+T-Pain&amp;tr=udp%3A%2F%2Ftracker.openbittorrent.com%3A80&amp;tr=udp%3A%2F%2Fopen.demonii.com%3A1337&amp;tr=udp%3A%2F%2Ftracker.coppersurfer.tk%3A6969&amp;tr=udp%3A%2F%2Fexodus.desync.com%3A6969","seeders":0,"leechers":1,"uploader":"kamikaz28","files":2,"time":1294395382,"description":"Pitbull - Hey Baby (Drop It To The Floor) ft. T-Pain\n\nFormat                           : AVI\nFormat/Info                      : Audio Video Interleave\nFile size                        : 27.6 MiB\nDuration                         : 3mn 25s\nOverall bit rate                 : 1 129 Kbps\nWriting application              : Lavf51.7.0\n\nVideo\nID                               : 0\nFormat                           : MPEG-4 Visual\nFormat profile                   : Simple@L1\nFormat settings, BVOP            : No\nFormat settings, QPel            : No\nFormat settings, GMC             : No warppoints\nFormat settings, Matrix          : Default (H.263)\nCodec ID                         : DIVX\nCodec ID/Info                    : Project Mayo\nCodec ID/Hint                    : DivX 4\nDuration                         : 3mn 24s\nBit rate                         : 959 Kbps\nWidth                            : 608 pixels\nHeight                           : 352 pixels\nDisplay aspect ratio             : 16:9\nFrame rate                       : 25.000 fps\nColor space                      : YUV\nChroma subsampling               : 4:2:0\nBit depth                        : 8 bits\nScan type                        : Progressive\nCompression mode                 : Lossy\nBits/(Pixel*Frame)               : 0.179\nStream size                      : 23.4 MiB (85%)\nWriting library                  : Lavc51.28.0\n\nAudio\nID                               : 1\nFormat                           : MPEG Audio\nFormat version                   : Version 1\nFormat profile                   : Layer 3\nMode                             : Joint stereo\nMode extension                   : MS Stereo\nCodec ID                         : 55\nCodec ID/Hint                    : MP3\nDuration                         : 3mn 25s\nBit rate mode                    : Constant\nBit rate                         : 160 Kbps\nChannel(s)                       : 2 channels\nSampling rate                    : 44.1 KHz\nCompression mode                 : Lossy\nStream size                      : 3.92 MiB (14%)\nAlignment                        : Aligned on interleaves\nInterleave, duration             : 26 ms (0.65 video frame)\nInterleave, preload duration     : 522 ms\nWriting library                  : LAME3.96","torrent":{"xt":"urn:btih:2a60d33e54e79e0b237aaa6a7563f74e365b546a","amp;dn":"Pitbull+-+Hey+Baby+%28Drop+It+To+The+Floor%29+ft.+T-Pain","amp;tr":["udp%3A%2F%2Ftracker.openbittorrent.com%3A80","udp%3A%2F%2Fopen.demonii.com%3A1337","udp%3A%2F%2Ftracker.coppersurfer.tk%3A6969","udp%3A%2F%2Fexodus.desync.com%3A6969"],"infoHash":"2a60d33e54e79e0b237aaa6a7563f74e365b546a","infoHashBuffer":{"type":"Buffer","data":[42,96,211,62,84,231,158,11,35,122,170,106,117,99,247,78,54,91,84,106]},"announce":[],"urlList":[]}}